<svg width="1440" height="2314" viewBox="0 0 1440 2314" xmlns="http://www.w3.org/2000/svg"><style>
        text {
          font-family: system-ui, sans-serif;
          fill: #000;
        }
        .bg {
          fill: #fff;
        }
        .icon {
          fill: #000;
          opacity: 0.8;
        }

        /* header/sidebar styles */
        .header {
          fill: #f8f8f8;
        }
        .headerDate {
          font-size: 14px;
          font-weight: bold;
        }
        .logoIcon {
          fill: #4660F9;
        }
        .tick {
          fill: #666;
          font-weight: bold;
        }
        .tickLine {
          stroke: #666;
        }
        .sidebarDivider {
          stroke: #ddd;
        }

        /* track styles */
        .boxText {
          opacity: 0.7;
        }
        .date {
          fill: #999;
          font-size: 12px;
        }
        .progressOuter {
          fill: rgba(255,255,255,0.3);
        }
        .progressInner {
          fill: rgba(0,0,0,0.5);
        }
        .closedGroup &gt; text, .closedGroup &gt; use {
          fill: #999;
        }
        .subtext {
          opacity: 0.7;
        }

        /* nested track styles */
        .nestedBox {
          opacity: 0.6;
        }
        .nestedBg {
          fill: #f8f8f8;
        }
      </style><defs><filter id="shadow"><feDropShadow dx="0" dy="1" stdDeviation="1" flood-color="#ccc"></feDropShadow></filter><clipPath id="dont-overlap-sidebar"><rect x="350" y="0" width="1090" height="2314"></rect></clipPath><clipPath id="sidebar-contents"><rect x="0" y="0" width="350" height="2314"></rect></clipPath><linearGradient id="sidebarShadow" x1="0%" y1="0%" x2="100%" y2="0%"><stop offset="0%" style="stop-color: rgb(100, 100, 100); stop-opacity: 0.15;"></stop><stop offset="100%" style="stop-color: rgb(100, 100, 100); stop-opacity: 0;"></stop></linearGradient><path id="projectIcon" d="M4 4v2h8V4zm0-2h8a2 2 0 012 2v2a2 2 0 01-2 2H4a2 2 0 01-2-2V4a2 2 0 012-2zm4 9v2h12v-2zm0-2h12a2 2 0 012 2v2a2 2 0 01-2 2H8a2 2 0 01-2-2v-2a2 2 0 012-2zm-4 9v2h3v-2zm0-2h3a2 2 0 012 2v2a2 2 0 01-2 2H4a2 2 0 01-2-2v-2a2 2 0 012-2z" transform="scale(0.7)"></path><path id="epicIcon" d="M4.667 2A.667.667 0 004 2.667v11.231l3.12-2.738a1.333 1.333 0 011.76 0L12 13.898V2.667A.667.667 0 0011.333 2zM11.333.667a2 2 0 012 2v11.231a1.333 1.333 0 01-2.212 1.003L8 12.163 4.88 14.9a1.333 1.333 0 01-2.213-1.003V2.667a2 2 0 012-2zM9.667 3.333H6v6h4V8H7.333V7h2V5.667h-2v-1h2.334z"></path><path id="epicIconClosed" d="M12 8.04a.667.667 0 111.333 0v5.778a1.333 1.333 0 01-2.234.983L8 11.96 4.901 14.8a1.333 1.333 0 01-2.234-.982V2.667a2 2 0 012-2h3.349a.667.667 0 110 1.333h-3.35A.667.667 0 004 2.667v11.15l3.099-2.84a1.333 1.333 0 011.802 0L12 13.817zM9.805 3.529l.862.862 2.862-2.862a.667.667 0 11.942.942l-3.333 3.334a.667.667 0 01-.943 0L8.862 4.47a.667.667 0 11.943-.942z"></path><path id="zhLogo" d="M11.228 3.727V1.076H.327v2.651h7.229L.168 12.928v2.674h11.22v-2.674h-7.57zm5.644.702c-3.127 0-5.484 2.583-5.484 5.756 0 3.152 2.449 5.735 5.826 5.735 1.835 0 3.376-.748 4.192-1.7l-1.428-1.882a3.686 3.686 0 01-2.651 1.134c-1.678 0-2.833-1.088-3.106-2.607h8.046c.045-.18.068-.566.068-.906 0-3.127-2.358-5.53-5.463-5.53zm-2.605 4.69c.318-1.382 1.269-2.334 2.652-2.334 1.292 0 2.266.793 2.583 2.334h-5.235zm42.975 1.497c0 1.586-.929 2.651-2.312 2.651-1.383 0-2.312-1.065-2.312-2.651v-5.87h-2.766v6.074c0 3.037 2.017 5.055 5.077 5.055s5.078-2.017 5.078-5.055V4.746h-2.765v5.87zM67.894 4.43v-.002c-1.405 0-2.516.566-3.308 1.496V.008H61.82v15.594h2.765v-1.087c.77.884 1.88 1.405 3.308 1.405 3.015 0 5.213-2.47 5.213-5.757 0-3.377-2.334-5.734-5.213-5.734zm-.43 8.884c-1.654 0-2.878-1.383-2.878-3.128s1.224-3.15 2.878-3.15c1.677 0 2.878 1.405 2.878 3.15 0 1.746-1.2 3.128-2.878 3.128zm-38.749-8.9c-2.976 0-4.938 2.018-4.938 5.054v6.075h2.69v-5.87c0-1.587.904-2.652 2.248-2.652 1.344 0 2.247 1.065 2.247 2.651v5.871h2.69V9.468c0-3.037-1.962-5.054-4.937-5.054zm16.376 2.44H38.18v-5.78h-2.834v14.527h2.834V9.505h6.912V15.6h2.855V1.075h-2.855z"></path></defs><rect x="0" y="0" width="1440" height="2314" class="bg"></rect><g class="track"><title>[feature] Concept to move the co-creation on a container &amp; repository based workspace Management</title><g class="" clip-path="url(#sidebar-contents)"><use href="#epicIcon" x="20" y="76" class="icon"></use><text x="40" y="88">[feature] Concept to move the co-crea…</text><text x="20" y="106" class="date">Mar 1 - Jul 5</text><line x1="0" x2="1440" y1="124" y2="124" stroke="#e7e7e7"></line></g><rect x="242.23658202828037" y="66" width="432.1970503268967" height="50" rx="2" clip-path="url(#dont-overlap-sidebar)" style="filter: url(&quot;#shadow&quot;); fill: rgb(182, 162, 221);"></rect><g class=""><text x="272.2365820282804" y="94" class="boxText" clip-path="url(#dont-overlap-sidebar)">[feature] Concept to move the co-creation on a container &amp; repository based workspace Management<tspan class="subtext"></tspan></text></g></g><g class="track"><title>Create and publish an open communication channel</title><g class="" clip-path="url(#sidebar-contents)"><use href="#epicIcon" x="20" y="142" class="icon"></use><text x="40" y="154">Create and publish an open communicat…</text><text x="20" y="172" class="date">Mar 4 - May 15</text><line x1="0" x2="1440" y1="190" y2="190" stroke="#e7e7e7"></line></g><rect x="252.5269879884446" y="132" width="246.96974304394098" height="50" rx="2" clip-path="url(#dont-overlap-sidebar)" style="filter: url(&quot;#shadow&quot;); fill: rgb(200, 205, 234);"></rect><g class=""><text x="282.5269879884446" y="160" class="boxText" clip-path="url(#dont-overlap-sidebar)">Create and publish an open communication channel<tspan class="subtext"> (10/10)</tspan></text></g><rect x="252.5269879884446" y="176" width="246.96974304394098" height="6" clip-path="url(#dont-overlap-sidebar)" class="progressOuter"></rect><rect x="252.5269879884446" y="176" width="246.96974304394098" height="6" clip-path="url(#dont-overlap-sidebar)" class="progressInner"></rect></g><g class="track"><title>[concept] Concept for User Task Management</title><g class="" clip-path="url(#sidebar-contents)"><use href="#epicIcon" x="20" y="208" class="icon"></use><text x="40" y="220">[concept] Concept for User Task Manag…</text><text x="20" y="238" class="date">Mar 7 - May 15</text><line x1="0" x2="1440" y1="256" y2="256" stroke="#e7e7e7"></line></g><rect x="262.8173939486088" y="198" width="236.67933708377677" height="50" rx="2" clip-path="url(#dont-overlap-sidebar)" style="filter: url(&quot;#shadow&quot;); fill: rgb(133, 213, 250);"></rect><g class=""><text x="292.8173939486088" y="226" class="boxText" clip-path="url(#dont-overlap-sidebar)">[concept] Concept for User Task Management<tspan class="subtext"> (0/2)</tspan></text></g><rect x="262.8173939486088" y="242" width="236.67933708377677" height="6" clip-path="url(#dont-overlap-sidebar)" class="progressOuter"></rect></g><g class="track"><title>Load testing digiWF-engine with K6</title><g class="" clip-path="url(#sidebar-contents)"><use href="#epicIcon" x="20" y="274" class="icon"></use><text x="40" y="286">Load testing digiWF-engine with K6</text><text x="20" y="304" class="date">Apr 2 - May 15</text><line x1="0" x2="1440" y1="322" y2="322" stroke="#e7e7e7"></line></g><rect x="352.0009122700319" y="264" width="147.49581876235368" height="50" rx="2" clip-path="url(#dont-overlap-sidebar)" style="filter: url(&quot;#shadow&quot;); fill: rgb(145, 226, 237);"></rect><g class=""><use href="#epicIcon" x="362.0009122700319" y="279" class="icon"></use><text x="382.0009122700319" y="292" class="boxText" clip-path="url(#dont-overlap-sidebar)">Load testing digiWF-engine with K6<tspan class="subtext"> (1/3)</tspan></text></g><rect x="352.0009122700319" y="308" width="147.49581876235368" height="6" clip-path="url(#dont-overlap-sidebar)" class="progressOuter"></rect><rect x="352.0009122700319" y="308" width="49.16527292078456" height="6" clip-path="url(#dont-overlap-sidebar)" class="progressInner"></rect></g><g class="track"><title>Cosys Integration</title><g class="" clip-path="url(#sidebar-contents)"><use href="#epicIcon" x="20" y="340" class="icon"></use><text x="40" y="352">Cosys Integration</text><text x="20" y="370" class="date">Apr 8 - May 15</text><line x1="0" x2="1440" y1="388" y2="388" stroke="#e7e7e7"></line></g><rect x="372.5817241903603" y="330" width="126.91500684202526" height="50" rx="2" clip-path="url(#dont-overlap-sidebar)" style="filter: url(&quot;#shadow&quot;); fill: rgb(182, 162, 221);"></rect><g class=""><use href="#epicIcon" x="382.5817241903603" y="345" class="icon"></use><text x="402.5817241903603" y="358" class="boxText" clip-path="url(#dont-overlap-sidebar)">Cosys Integration<tspan class="subtext"> (0/6)</tspan></text></g><rect x="372.5817241903603" y="374" width="126.91500684202526" height="6" clip-path="url(#dont-overlap-sidebar)" class="progressOuter"></rect></g><g class="track"><title>Create an Integration Service for Mail</title><g class="" clip-path="url(#sidebar-contents)"><use href="#epicIcon" x="20" y="406" class="icon"></use><text x="40" y="418">Create an Integration Service for Mai…</text><text x="20" y="436" class="date">Apr 20 - May 15</text><line x1="0" x2="1440" y1="454" y2="454" stroke="#e7e7e7"></line></g><rect x="413.74334803101715" y="396" width="85.75338300136843" height="50" rx="2" clip-path="url(#dont-overlap-sidebar)" style="filter: url(&quot;#shadow&quot;); fill: rgb(200, 205, 234);"></rect><g class=""><use href="#epicIcon" x="423.74334803101715" y="411" class="icon"></use><text x="443.74334803101715" y="424" class="boxText" clip-path="url(#dont-overlap-sidebar)">Create an Integration Service for Mail<tspan class="subtext"></tspan></text></g></g><g class="track"><title>Marketplaces for Integration Artifacts</title><g class="" clip-path="url(#sidebar-contents)"><use href="#epicIcon" x="20" y="472" class="icon"></use><text x="40" y="484">Marketplaces for Integration Artifact…</text><text x="20" y="502" class="date">Apr 25 - May 15</text><line x1="0" x2="1440" y1="520" y2="520" stroke="#e7e7e7"></line></g><rect x="430.89402463129085" y="462" width="68.60270640109474" height="50" rx="2" clip-path="url(#dont-overlap-sidebar)" style="filter: url(&quot;#shadow&quot;); fill: rgb(133, 213, 250);"></rect><g class=""><use href="#epicIcon" x="440.89402463129085" y="477" class="icon"></use><text x="460.89402463129085" y="490" class="boxText" clip-path="url(#dont-overlap-sidebar)">Marketplaces for Integration Artifacts<tspan class="subtext"> (0/3)</tspan></text></g><rect x="430.89402463129085" y="506" width="68.60270640109474" height="6" clip-path="url(#dont-overlap-sidebar)" class="progressOuter"></rect></g><g class="track"><title>JMS Integration Artifact</title><g class="" clip-path="url(#sidebar-contents)"><use href="#epicIcon" x="20" y="538" class="icon"></use><text x="40" y="550">JMS Integration Artifact</text><text x="20" y="568" class="date">May 1 - May 29</text><line x1="0" x2="1440" y1="586" y2="586" stroke="#e7e7e7"></line></g><rect x="451.47483655161926" y="528" width="96.04378896153258" height="50" rx="2" clip-path="url(#dont-overlap-sidebar)" style="filter: url(&quot;#shadow&quot;); fill: rgb(145, 226, 237);"></rect><g class=""><use href="#epicIcon" x="461.47483655161926" y="543" class="icon"></use><text x="481.47483655161926" y="556" class="boxText" clip-path="url(#dont-overlap-sidebar)">JMS Integration Artifact<tspan class="subtext"> (0/1)</tspan></text></g><rect x="451.47483655161926" y="572" width="96.04378896153258" height="6" clip-path="url(#dont-overlap-sidebar)" class="progressOuter"></rect></g><g class="track"><title>Form Builder documentation and scope</title><g class="" clip-path="url(#sidebar-contents)"><use href="#epicIcon" x="20" y="604" class="icon"></use><text x="40" y="616">Form Builder documentation and scope</text><text x="20" y="634" class="date">May 2 - May 29</text><line x1="0" x2="1440" y1="652" y2="652" stroke="#e7e7e7"></line></g><rect x="454.90497187167404" y="594" width="92.61365364147781" height="50" rx="2" clip-path="url(#dont-overlap-sidebar)" style="filter: url(&quot;#shadow&quot;); fill: rgb(182, 162, 221);"></rect><g class=""><use href="#epicIcon" x="464.90497187167404" y="609" class="icon"></use><text x="484.90497187167404" y="622" class="boxText" clip-path="url(#dont-overlap-sidebar)">Form Builder documentation and scope<tspan class="subtext"></tspan></text></g></g><g class="track"><title>Marketing / Community Concept</title><g class="" clip-path="url(#sidebar-contents)"><use href="#epicIcon" x="20" y="670" class="icon"></use><text x="40" y="682">Marketing / Community Concept</text><text x="20" y="700" class="date">May 2 - May 15</text><line x1="0" x2="1440" y1="718" y2="718" stroke="#e7e7e7"></line></g><rect x="454.90497187167404" y="660" width="44.59175916071155" height="50" rx="2" clip-path="url(#dont-overlap-sidebar)" style="filter: url(&quot;#shadow&quot;); fill: rgb(200, 205, 234);"></rect><g class=""><use href="#epicIcon" x="464.90497187167404" y="675" class="icon"></use><text x="484.90497187167404" y="688" class="boxText" clip-path="url(#dont-overlap-sidebar)">Marketing / Community Concept<tspan class="subtext"></tspan></text></g></g><g class="track"><title>Extraction of OK.Visa Integration</title><g class="" clip-path="url(#sidebar-contents)"><use href="#epicIcon" x="20" y="736" class="icon"></use><text x="40" y="748">Extraction of OK.Visa Integration</text><text x="20" y="766" class="date">May 2 - May 15</text><line x1="0" x2="1440" y1="784" y2="784" stroke="#e7e7e7"></line></g><rect x="454.90497187167404" y="726" width="44.59175916071155" height="50" rx="2" clip-path="url(#dont-overlap-sidebar)" style="filter: url(&quot;#shadow&quot;); fill: rgb(133, 213, 250);"></rect><g class=""><use href="#epicIcon" x="464.90497187167404" y="741" class="icon"></use><text x="484.90497187167404" y="754" class="boxText" clip-path="url(#dont-overlap-sidebar)">Extraction of OK.Visa Integration<tspan class="subtext"> (0/6)</tspan></text></g><rect x="454.90497187167404" y="770" width="44.59175916071155" height="6" clip-path="url(#dont-overlap-sidebar)" class="progressOuter"></rect></g><g class="track"><title>Kafka topic documentation and topic concept</title><g class="" clip-path="url(#sidebar-contents)"><use href="#epicIcon" x="20" y="802" class="icon"></use><text x="40" y="814">Kafka topic documentation and topic c…</text><text x="20" y="832" class="date">May 3 - May 15</text><line x1="0" x2="1440" y1="850" y2="850" stroke="#e7e7e7"></line></g><rect x="458.33510719172875" y="792" width="41.16162384065683" height="50" rx="2" clip-path="url(#dont-overlap-sidebar)" style="filter: url(&quot;#shadow&quot;); fill: rgb(145, 226, 237);"></rect><g class=""><use href="#epicIcon" x="468.33510719172875" y="807" class="icon"></use><text x="488.33510719172875" y="820" class="boxText" clip-path="url(#dont-overlap-sidebar)">Kafka topic documentation and topic concept<tspan class="subtext"> (0/3)</tspan></text></g><rect x="458.33510719172875" y="836" width="41.16162384065683" height="6" clip-path="url(#dont-overlap-sidebar)" class="progressOuter"></rect></g><g class="track"><title>Generic error handling of async events</title><g class="" clip-path="url(#sidebar-contents)"><use href="#epicIcon" x="20" y="868" class="icon"></use><text x="40" y="880">Generic error handling of async event…</text><text x="20" y="898" class="date">May 15 - May 29</text><line x1="0" x2="1440" y1="916" y2="916" stroke="#e7e7e7"></line></g><rect x="499.4967310323856" y="858" width="48.021894480766264" height="50" rx="2" clip-path="url(#dont-overlap-sidebar)" style="filter: url(&quot;#shadow&quot;); fill: rgb(182, 162, 221);"></rect><g class=""><use href="#epicIcon" x="509.4967310323856" y="873" class="icon"></use><text x="529.4967310323856" y="886" class="boxText" clip-path="url(#dont-overlap-sidebar)">Generic error handling of async events<tspan class="subtext"> (0/4)</tspan></text></g><rect x="499.4967310323856" y="902" width="48.021894480766264" height="6" clip-path="url(#dont-overlap-sidebar)" class="progressOuter"></rect></g><g class="track"><title>Provide Digiwf Engine Open Source</title><g class="" clip-path="url(#sidebar-contents)"><use href="#epicIcon" x="20" y="934" class="icon"></use><text x="40" y="946">Provide Digiwf Engine Open Source</text><text x="20" y="964" class="date">May 15 - May 29</text><line x1="0" x2="1440" y1="982" y2="982" stroke="#e7e7e7"></line></g><rect x="499.4967310323856" y="924" width="48.021894480766264" height="50" rx="2" clip-path="url(#dont-overlap-sidebar)" style="filter: url(&quot;#shadow&quot;); fill: rgb(200, 205, 234);"></rect><g class=""><use href="#epicIcon" x="509.4967310323856" y="939" class="icon"></use><text x="529.4967310323856" y="952" class="boxText" clip-path="url(#dont-overlap-sidebar)">Provide Digiwf Engine Open Source<tspan class="subtext"></tspan></text></g></g><g class="track"><title>Provide the DigiWF Tasklist Open Source</title><g class="" clip-path="url(#sidebar-contents)"><use href="#epicIcon" x="20" y="1000" class="icon"></use><text x="40" y="1012">Provide the DigiWF Tasklist Open Sour…</text><text x="20" y="1030" class="date">May 15 - May 29</text><line x1="0" x2="1440" y1="1048" y2="1048" stroke="#e7e7e7"></line></g><rect x="499.4967310323856" y="990" width="48.021894480766264" height="50" rx="2" clip-path="url(#dont-overlap-sidebar)" style="filter: url(&quot;#shadow&quot;); fill: rgb(133, 213, 250);"></rect><g class=""><use href="#epicIcon" x="509.4967310323856" y="1005" class="icon"></use><text x="529.4967310323856" y="1018" class="boxText" clip-path="url(#dont-overlap-sidebar)">Provide the DigiWF Tasklist Open Source<tspan class="subtext"></tspan></text></g></g><g class="track"><title>User Task Apis</title><g class="" clip-path="url(#sidebar-contents)"><use href="#epicIcon" x="20" y="1066" class="icon"></use><text x="40" y="1078">User Task Apis</text><text x="20" y="1096" class="date">May 29 - Jun 12</text><line x1="0" x2="1440" y1="1114" y2="1114" stroke="#e7e7e7"></line></g><rect x="547.5186255131518" y="1056" width="48.02189448076638" height="50" rx="2" clip-path="url(#dont-overlap-sidebar)" style="filter: url(&quot;#shadow&quot;); fill: rgb(145, 226, 237);"></rect><g class=""><use href="#epicIcon" x="557.5186255131518" y="1071" class="icon"></use><text x="577.5186255131518" y="1084" class="boxText" clip-path="url(#dont-overlap-sidebar)">User Task Apis<tspan class="subtext"></tspan></text></g></g><g class="track"><title>Camunda scaling at high load</title><g class="" clip-path="url(#sidebar-contents)"><use href="#epicIcon" x="20" y="1132" class="icon"></use><text x="40" y="1144">Camunda scaling at high load</text><text x="20" y="1162" class="date">May 29 - Jul 2</text><line x1="0" x2="1440" y1="1180" y2="1180" stroke="#e7e7e7"></line></g><rect x="547.5186255131518" y="1122" width="116.62460088186106" height="50" rx="2" clip-path="url(#dont-overlap-sidebar)" style="filter: url(&quot;#shadow&quot;); fill: rgb(182, 162, 221);"></rect><g class=""><use href="#epicIcon" x="557.5186255131518" y="1137" class="icon"></use><text x="577.5186255131518" y="1150" class="boxText" clip-path="url(#dont-overlap-sidebar)">Camunda scaling at high load<tspan class="subtext"></tspan></text></g></g><g class="track"><title>Form Builder Extensions for reusability</title><g class="" clip-path="url(#sidebar-contents)"><use href="#epicIcon" x="20" y="1198" class="icon"></use><text x="40" y="1210">Form Builder Extensions for reusabili…</text><text x="20" y="1228" class="date">May 29 - Jul 5</text><line x1="0" x2="1440" y1="1246" y2="1246" stroke="#e7e7e7"></line></g><rect x="547.5186255131518" y="1188" width="126.91500684202526" height="50" rx="2" clip-path="url(#dont-overlap-sidebar)" style="filter: url(&quot;#shadow&quot;); fill: rgb(200, 205, 234);"></rect><g class=""><use href="#epicIcon" x="557.5186255131518" y="1203" class="icon"></use><text x="577.5186255131518" y="1216" class="boxText" clip-path="url(#dont-overlap-sidebar)">Form Builder Extensions for reusability<tspan class="subtext"></tspan></text></g></g><g class="track"><title>WIP: DMS Integration artifact</title><g class="" clip-path="url(#sidebar-contents)"><use href="#epicIcon" x="20" y="1264" class="icon"></use><text x="40" y="1276">WIP: DMS Integration artifact</text><text x="20" y="1294" class="date">May 29 - Jun 14</text><line x1="0" x2="1440" y1="1312" y2="1312" stroke="#e7e7e7"></line></g><rect x="547.5186255131518" y="1254" width="54.88216512087581" height="50" rx="2" clip-path="url(#dont-overlap-sidebar)" style="filter: url(&quot;#shadow&quot;); fill: rgb(133, 213, 250);"></rect><g class=""><use href="#epicIcon" x="557.5186255131518" y="1269" class="icon"></use><text x="577.5186255131518" y="1282" class="boxText" clip-path="url(#dont-overlap-sidebar)">WIP: DMS Integration artifact<tspan class="subtext"></tspan></text></g></g><g class="track"><title>Create Documentation for external Users</title><g class="" clip-path="url(#sidebar-contents)"><use href="#epicIcon" x="20" y="1330" class="icon"></use><text x="40" y="1342">Create Documentation for external Use…</text><text x="20" y="1360" class="date">May 30 - Jun 12</text><line x1="0" x2="1440" y1="1378" y2="1378" stroke="#e7e7e7"></line></g><rect x="550.9487608332066" y="1320" width="44.591759160711604" height="50" rx="2" clip-path="url(#dont-overlap-sidebar)" style="filter: url(&quot;#shadow&quot;); fill: rgb(145, 226, 237);"></rect><g class=""><use href="#epicIcon" x="560.9487608332066" y="1335" class="icon"></use><text x="580.9487608332066" y="1348" class="boxText" clip-path="url(#dont-overlap-sidebar)">Create Documentation for external Users<tspan class="subtext"></tspan></text></g></g><g class="track"><title>WIP: Extract the ServiceDefinition Domain from DigiWF Engine and create an own Service</title><g class="" clip-path="url(#sidebar-contents)"><use href="#epicIcon" x="20" y="1396" class="icon"></use><text x="40" y="1408">WIP: Extract the ServiceDefinition Do…</text><text x="20" y="1426" class="date">Jun 12 - Jul 2</text><line x1="0" x2="1440" y1="1444" y2="1444" stroke="#e7e7e7"></line></g><rect x="595.5405199939182" y="1386" width="68.60270640109468" height="50" rx="2" clip-path="url(#dont-overlap-sidebar)" style="filter: url(&quot;#shadow&quot;); fill: rgb(182, 162, 221);"></rect><g class=""><use href="#epicIcon" x="605.5405199939182" y="1401" class="icon"></use><text x="625.5405199939182" y="1414" class="boxText" clip-path="url(#dont-overlap-sidebar)">WIP: Extract the ServiceDefinition Domain from DigiWF Engine and create an own Service<tspan class="subtext"></tspan></text></g></g><g class="track"><title>WIP: Extract the ServiceInstance Domain from DigiWF Engine and create an own Service</title><g class="" clip-path="url(#sidebar-contents)"><use href="#epicIcon" x="20" y="1462" class="icon"></use><text x="40" y="1474">WIP: Extract the ServiceInstance Doma…</text><text x="20" y="1492" class="date">Jun 12 - Jul 2</text><line x1="0" x2="1440" y1="1510" y2="1510" stroke="#e7e7e7"></line></g><rect x="595.5405199939182" y="1452" width="68.60270640109468" height="50" rx="2" clip-path="url(#dont-overlap-sidebar)" style="filter: url(&quot;#shadow&quot;); fill: rgb(200, 205, 234);"></rect><g class=""><use href="#epicIcon" x="605.5405199939182" y="1467" class="icon"></use><text x="625.5405199939182" y="1480" class="boxText" clip-path="url(#dont-overlap-sidebar)">WIP: Extract the ServiceInstance Domain from DigiWF Engine and create an own Service<tspan class="subtext"></tspan></text></g></g><g class="track"><title>Professional extension of the task list</title><g class="" clip-path="url(#sidebar-contents)"><use href="#epicIcon" x="20" y="1528" class="icon"></use><text x="40" y="1540">Professional extension of the task li…</text><text x="20" y="1558" class="date">Jul 2 - Jul 20</text><line x1="0" x2="1440" y1="1576" y2="1576" stroke="#e7e7e7"></line></g><rect x="664.1432263950129" y="1518" width="61.742435760985245" height="50" rx="2" clip-path="url(#dont-overlap-sidebar)" style="filter: url(&quot;#shadow&quot;); fill: rgb(133, 213, 250);"></rect><g class=""><use href="#epicIcon" x="674.1432263950129" y="1533" class="icon"></use><text x="694.1432263950129" y="1546" class="boxText" clip-path="url(#dont-overlap-sidebar)">Professional extension of the task list<tspan class="subtext"></tspan></text></g></g><g class="track"><title>FAQ section </title><g class="" clip-path="url(#sidebar-contents)"><use href="#epicIcon" x="20" y="1594" class="icon"></use><text x="40" y="1606">FAQ section </text><text x="20" y="1624" class="date">Jul 2 - Jul 20</text><line x1="0" x2="1440" y1="1642" y2="1642" stroke="#e7e7e7"></line></g><rect x="664.1432263950129" y="1584" width="61.742435760985245" height="50" rx="2" clip-path="url(#dont-overlap-sidebar)" style="filter: url(&quot;#shadow&quot;); fill: rgb(145, 226, 237);"></rect><g class=""><use href="#epicIcon" x="674.1432263950129" y="1599" class="icon"></use><text x="694.1432263950129" y="1612" class="boxText" clip-path="url(#dont-overlap-sidebar)">FAQ section <tspan class="subtext"></tspan></text></g></g><g class="track"><title>NEW and shiny DMS Interface</title><g class="" clip-path="url(#sidebar-contents)"><use href="#epicIcon" x="20" y="1660" class="icon"></use><text x="40" y="1672">NEW and shiny DMS Interface</text><text x="20" y="1690" class="date">Jul 2 - Jul 20</text><line x1="0" x2="1440" y1="1708" y2="1708" stroke="#e7e7e7"></line></g><rect x="664.1432263950129" y="1650" width="61.742435760985245" height="50" rx="2" clip-path="url(#dont-overlap-sidebar)" style="filter: url(&quot;#shadow&quot;); fill: rgb(182, 162, 221);"></rect><g class=""><use href="#epicIcon" x="674.1432263950129" y="1665" class="icon"></use><text x="694.1432263950129" y="1678" class="boxText" clip-path="url(#dont-overlap-sidebar)">NEW and shiny DMS Interface<tspan class="subtext"></tspan></text></g></g><g class="track"><title>Simplify modeling through properties panel plugins extension easier</title><g class="" clip-path="url(#sidebar-contents)"><use href="#epicIcon" x="20" y="1726" class="icon"></use><text x="40" y="1738">Simplify modeling through properties …</text><text x="20" y="1756" class="date">Jul 5 - Aug 23</text><line x1="0" x2="1440" y1="1774" y2="1774" stroke="#e7e7e7"></line></g><rect x="674.4336323551771" y="1716" width="168.0766306826821" height="50" rx="2" clip-path="url(#dont-overlap-sidebar)" style="filter: url(&quot;#shadow&quot;); fill: rgb(200, 205, 234);"></rect><g class=""><use href="#epicIcon" x="684.4336323551771" y="1731" class="icon"></use><text x="704.4336323551771" y="1744" class="boxText" clip-path="url(#dont-overlap-sidebar)">Simplify modeling through properties panel plugins extension easier<tspan class="subtext"></tspan></text></g></g><g class="track"><title>Provide an easy example of how to use the DigiWF Core Services</title><g class="" clip-path="url(#sidebar-contents)"><use href="#epicIcon" x="20" y="1792" class="icon"></use><text x="40" y="1804">Provide an easy example of how to use…</text><text x="20" y="1822" class="date">Jul 5 - Jul 19</text><line x1="0" x2="1440" y1="1840" y2="1840" stroke="#e7e7e7"></line></g><rect x="674.4336323551771" y="1782" width="48.021894480766264" height="50" rx="2" clip-path="url(#dont-overlap-sidebar)" style="filter: url(&quot;#shadow&quot;); fill: rgb(133, 213, 250);"></rect><g class=""><use href="#epicIcon" x="684.4336323551771" y="1797" class="icon"></use><text x="704.4336323551771" y="1810" class="boxText" clip-path="url(#dont-overlap-sidebar)">Provide an easy example of how to use the DigiWF Core Services<tspan class="subtext"></tspan></text></g></g><g class="track"><title>Definition of the user interface of the WebIDE</title><g class="" clip-path="url(#sidebar-contents)"><use href="#epicIcon" x="20" y="1858" class="icon"></use><text x="40" y="1870">Definition of the user interface of t…</text><text x="20" y="1888" class="date">Jul 5 - Aug 22</text><line x1="0" x2="1440" y1="1906" y2="1906" stroke="#e7e7e7"></line></g><rect x="674.4336323551771" y="1848" width="164.64649536262732" height="50" rx="2" clip-path="url(#dont-overlap-sidebar)" style="filter: url(&quot;#shadow&quot;); fill: rgb(145, 226, 237);"></rect><g class=""><use href="#epicIcon" x="684.4336323551771" y="1863" class="icon"></use><text x="704.4336323551771" y="1876" class="boxText" clip-path="url(#dont-overlap-sidebar)">Definition of the user interface of the WebIDE<tspan class="subtext"></tspan></text></g></g><g class="track"><title>Web-IDE bpm-server 2.0</title><g class="" clip-path="url(#sidebar-contents)"><use href="#epicIcon" x="20" y="1924" class="icon"></use><text x="40" y="1936">Web-IDE bpm-server 2.0</text><text x="20" y="1954" class="date">Jul 9 - Aug 31</text><line x1="0" x2="1440" y1="1972" y2="1972" stroke="#e7e7e7"></line></g><rect x="688.1541736353961" y="1914" width="181.79717196290096" height="50" rx="2" clip-path="url(#dont-overlap-sidebar)" style="filter: url(&quot;#shadow&quot;); fill: rgb(182, 162, 221);"></rect><g class=""><use href="#epicIcon" x="698.1541736353961" y="1929" class="icon"></use><text x="718.1541736353961" y="1942" class="boxText" clip-path="url(#dont-overlap-sidebar)">Web-IDE bpm-server 2.0<tspan class="subtext"></tspan></text></g></g><g class="track"><title>WIP: Easy to use GIT-VS-Code Plugin</title><g class="" clip-path="url(#sidebar-contents)"><use href="#epicIcon" x="20" y="1990" class="icon"></use><text x="40" y="2002">WIP: Easy to use GIT-VS-Code Plugin</text><text x="20" y="2020" class="date">Jul 31 - Aug 27</text><line x1="0" x2="1440" y1="2038" y2="2038" stroke="#e7e7e7"></line></g><rect x="763.6171506766003" y="1980" width="92.61365364147775" height="50" rx="2" clip-path="url(#dont-overlap-sidebar)" style="filter: url(&quot;#shadow&quot;); fill: rgb(200, 205, 234);"></rect><g class=""><use href="#epicIcon" x="773.6171506766003" y="1995" class="icon"></use><text x="793.6171506766003" y="2008" class="boxText" clip-path="url(#dont-overlap-sidebar)">WIP: Easy to use GIT-VS-Code Plugin<tspan class="subtext"></tspan></text></g></g><g class="track"><title>WIP: Modeler (BPMN/DMN) VS-Code Plugin</title><g class="" clip-path="url(#sidebar-contents)"><use href="#epicIcon" x="20" y="2056" class="icon"></use><text x="40" y="2068">WIP: Modeler (BPMN/DMN) VS-Code Plugi…</text><text x="20" y="2086" class="date">Jul 31 - Aug 27</text><line x1="0" x2="1440" y1="2104" y2="2104" stroke="#e7e7e7"></line></g><rect x="763.6171506766003" y="2046" width="92.61365364147775" height="50" rx="2" clip-path="url(#dont-overlap-sidebar)" style="filter: url(&quot;#shadow&quot;); fill: rgb(133, 213, 250);"></rect><g class=""><use href="#epicIcon" x="773.6171506766003" y="2061" class="icon"></use><text x="793.6171506766003" y="2074" class="boxText" clip-path="url(#dont-overlap-sidebar)">WIP: Modeler (BPMN/DMN) VS-Code Plugin<tspan class="subtext"></tspan></text></g></g><g class="track"><title>WIP: Form Builder VS-Code Plugin</title><g class="" clip-path="url(#sidebar-contents)"><use href="#epicIcon" x="20" y="2122" class="icon"></use><text x="40" y="2134">WIP: Form Builder VS-Code Plugin</text><text x="20" y="2152" class="date">Aug 1 - Oct 8</text><line x1="0" x2="1440" y1="2170" y2="2170" stroke="#e7e7e7"></line></g><rect x="767.0472859966551" y="2112" width="233.249201763722" height="50" rx="2" clip-path="url(#dont-overlap-sidebar)" style="filter: url(&quot;#shadow&quot;); fill: rgb(145, 226, 237);"></rect><g class=""><use href="#epicIcon" x="777.0472859966551" y="2127" class="icon"></use><text x="797.0472859966551" y="2140" class="boxText" clip-path="url(#dont-overlap-sidebar)">WIP: Form Builder VS-Code Plugin<tspan class="subtext"></tspan></text></g></g><g class="track"><title>WIP: Provide Cosys a process data source</title><g class="" clip-path="url(#sidebar-contents)"><use href="#epicIcon" x="20" y="2188" class="icon"></use><text x="40" y="2200">WIP: Provide Cosys a process data sou…</text><text x="20" y="2218" class="date">Aug 2 - Sep 5</text><line x1="0" x2="1440" y1="2236" y2="2236" stroke="#e7e7e7"></line></g><rect x="770.4774213167098" y="2178" width="116.62460088186106" height="50" rx="2" clip-path="url(#dont-overlap-sidebar)" style="filter: url(&quot;#shadow&quot;); fill: rgb(182, 162, 221);"></rect><g class=""><use href="#epicIcon" x="780.4774213167098" y="2193" class="icon"></use><text x="800.4774213167098" y="2206" class="boxText" clip-path="url(#dont-overlap-sidebar)">WIP: Provide Cosys a process data source<tspan class="subtext"></tspan></text></g></g><g class="track"><title>Instructions for working with the WebIDE</title><g class="" clip-path="url(#sidebar-contents)"><use href="#epicIcon" x="20" y="2254" class="icon"></use><text x="40" y="2266">Instructions for working with the Web…</text><text x="20" y="2284" class="date">Aug 31 - Oct 18</text><line x1="0" x2="1440" y1="2302" y2="2302" stroke="#e7e7e7"></line></g><rect x="869.951345598297" y="2244" width="164.64649536262743" height="50" rx="2" clip-path="url(#dont-overlap-sidebar)" style="filter: url(&quot;#shadow&quot;); fill: rgb(200, 205, 234);"></rect><g class=""><use href="#epicIcon" x="879.951345598297" y="2259" class="icon"></use><text x="899.951345598297" y="2272" class="boxText" clip-path="url(#dont-overlap-sidebar)">Instructions for working with the WebIDE<tspan class="subtext"></tspan></text></g></g><g><rect x="0" y="0" width="1440" height="62" class="header" style="filter: url(&quot;#shadow&quot;);"></rect><a href="https://www.zenhub.com"><use href="#zhLogo" x="20" y="12" class="logoIcon"></use></a><text x="20" y="45" class="headerDate">May 5, 2022</text></g><g clip-path="url(#dont-overlap-sidebar)"><text x="350" y="30" class="tick">Apr</text><text x="452.9040596016421" y="30" class="tick">May</text><text x="559.2382545233389" y="30" class="tick">Jun</text><text x="662.142314124981" y="30" class="tick">Jul</text><text x="768.4765090466778" y="30" class="tick">Aug</text><text x="874.8107039683747" y="30" class="tick">Sep</text><text x="977.7147635700168" y="30" class="tick">Oct</text><text x="1084.1918807967159" y="30" class="tick">Nov</text><text x="1187.095940398358" y="30" class="tick">Dec</text><text x="1293.430135320055" y="30" class="tick">2023</text>;</g><rect x="350" y="0" width="20" height="2314" fill="url(#sidebarShadow)"></rect><line x1="350" x2="350" y1="50" y2="2314" class="sidebarDivider"></line></svg>